# xmcd
#
# Track frame offsets: 
#        150
#        18012
#        34202
#        52985
#
# Disc length: 982 seconds
#
# Revision: 1
# Processed by: cddbd v1.5.2PL0 Copyright (c) Steve Scherf et al.
# Submitted via: ExactAudioCopy v0.99pb4
#
DISCID=2403d404
DTITLE=The Paradise Motel - Drive
DYEAR=1999
DGENRE=Alternative
TTITLE0=Drive (Radio Edit)
TTITLE1=Drive (7" Juniper Mix)
TTITLE2=Drive (12" Juniper Mix)
TTITLE3=Drive (Mogwai Mix)
EXTD=
EXTT0=
EXTT1=
EXTT2=
EXTT3=
PLAYORDER=
